<?xml version="1.0" standalone="no"?>
<!DOCTYPE svg PUBLIC "-//W3C//DTD SVG 20010904//EN"
 "http://www.w3.org/TR/2001/REC-SVG-20010904/DTD/svg10.dtd">
<svg version="1.0" xmlns="http://www.w3.org/2000/svg"
 width="512.000000pt" height="512.000000pt" viewBox="0 0 512.000000 512.000000"
 preserveAspectRatio="xMidYMid meet">

<g transform="translate(0.000000,512.000000) scale(0.100000,-0.100000)"
fill="#000000" stroke="none">
<path d="M2314 4865 c-85 -77 -202 -216 -271 -320 -261 -393 -465 -1031 -575
-1795 -18 -126 -36 -224 -39 -217 -4 7 -12 48 -19 92 -18 125 -17 124 -57 140
-20 8 -45 12 -56 9 -19 -6 -17 -8 13 -24 42 -22 18 -33 -26 -12 -21 9 -42 12
-60 7 l-29 -7 34 -17 33 -18 -102 -38 c-116 -44 -106 -29 -150 -203 -64 -257
-75 -344 -75 -622 l0 -256 35 -58 c107 -179 337 -327 645 -415 91 -26 246 -58
314 -66 29 -3 99 -12 155 -20 55 -8 146 -17 201 -21 l100 -7 105 -101 c58 -56
112 -101 121 -101 9 0 23 6 31 12 11 10 22 7 52 -13 35 -24 39 -25 56 -9 11
10 26 14 42 10 16 -4 29 -1 37 8 9 12 19 13 46 4 28 -8 38 -7 52 6 12 10 23
13 34 7 9 -5 28 -5 45 0 16 4 23 9 16 9 -7 1 -10 6 -7 11 4 7 11 8 18 2 21
-17 67 -11 82 11 9 12 20 17 31 13 13 -5 15 -2 11 14 -4 17 -3 18 16 8 34 -18
50 -18 63 0 7 9 16 14 20 10 17 -18 -123 -272 -210 -381 -34 -43 -33 -44 43
-74 50 -19 39 -27 126 93 69 95 175 320 175 372 0 11 -32 37 -86 71 -93 59
-94 65 -9 76 85 11 372 112 497 174 64 33 150 81 190 107 95 62 198 166 229
229 22 46 24 61 23 185 -1 174 -24 274 -99 425 -113 229 -248 383 -904 1030
-371 367 -511 525 -497 562 3 8 -1 16 -9 19 -8 4 -15 17 -15 31 0 13 4 22 9
19 4 -3 6 5 4 17 -4 23 59 119 120 185 17 17 26 32 20 32 -9 0 -35 -18 -115
-80 -27 -21 -28 -21 -28 -3 0 11 4 23 10 29 5 5 13 31 16 58 5 36 3 50 -7 57
-11 7 -11 9 -1 9 10 0 12 13 6 56 -5 41 -3 58 6 64 12 8 17 87 5 98 -2 3 0 13
6 23 6 13 6 25 -3 39 -11 17 -11 22 1 30 13 7 13 11 1 25 -11 14 -11 18 -1 25
10 6 12 24 7 76 -4 38 -10 79 -13 91 l-5 22 -59 -29 c-32 -17 -97 -59 -143
-95 -47 -35 -87 -61 -90 -57 -12 19 -36 242 -36 332 0 74 -3 100 -13 100 -7 0
-49 -34 -93 -75z m1359 -2420 c13 -51 17 -96 14 -165 -4 -110 -23 -164 -83
-230 -41 -45 -146 -130 -162 -130 -5 0 -17 51 -26 113 -9 61 -28 171 -41 242
-13 72 -27 156 -31 188 l-6 58 158 -3 159 -3 18 -70z m-913 -557 c19 -6 43
-14 52 -19 24 -12 37 -11 18 1 -10 6 45 10 165 10 l180 0 43 -28 42 -29 -79
-31 c-156 -61 -352 -105 -520 -118 l-88 -7 -56 73 -56 73 21 31 c49 71 44 69
148 62 52 -4 111 -12 130 -18z"/>
<path d="M1372 2801 c-11 -7 -11 -9 2 -14 10 -4 16 -1 16 8 0 17 -1 17 -18 6z"/>
</g>
</svg>
